<?xml version="1.0" ?><svg xmlns="http://www.w3.org/2000/svg" id="Layer_5" data-name="Layer 5" width="512" height="512" viewBox="0 0 512 512"><defs><style>
      .cls-1 {
        stroke-width: 0px;
      }
    </style></defs><path class="cls-1" d="m388.371,142.88c-1.008-2.054-3.098-3.356-5.386-3.356s-4.378,1.302-5.386,3.356c-9.286,18.916-16.173,25.802-35.089,35.088-2.054,1.008-3.355,3.097-3.355,5.386s1.302,4.377,3.355,5.386c18.916,9.287,25.803,16.173,35.089,35.088,2.042,4.411,8.728,4.429,10.771,0,9.286-18.915,16.173-25.802,35.089-35.088,2.054-1.008,3.355-3.097,3.355-5.386s-1.302-4.377-3.355-5.386c-18.916-9.287-25.803-16.173-35.089-35.088Zm-5.386,65.626c-6.719-11.268-13.885-18.434-25.152-25.152,11.269-6.719,18.434-13.884,25.152-25.152,6.719,11.268,13.884,18.433,25.152,25.152-11.268,6.719-18.434,13.884-25.152,25.152Z"/><path class="cls-1" d="m7.355,53.216c18.916,9.287,25.803,16.173,35.089,35.089,1.008,2.054,3.098,3.356,5.386,3.356s4.378-1.302,5.386-3.356c9.286-18.916,16.173-25.802,35.089-35.089,4.41-2.042,4.428-8.728,0-10.771-18.916-9.287-25.803-16.173-35.089-35.088-1.008-2.054-3.098-3.356-5.386-3.356s-4.378,1.302-5.386,3.356c-9.286,18.916-16.173,25.802-35.089,35.088-2.054,1.008-3.355,3.097-3.355,5.386s1.302,4.377,3.355,5.386Zm40.475-30.538c6.719,11.268,13.884,18.433,25.152,25.152-11.268,6.719-18.434,13.884-25.152,25.152-6.719-11.268-13.885-18.434-25.152-25.152,11.269-6.719,18.434-13.884,25.152-25.152Z"/><path class="cls-1" d="m489.998,342.185h-75.959c3.105-20.672,6.581-39.558,15.462-49.633,2.191-2.486,1.952-6.277-.533-8.469-2.485-2.19-6.276-1.953-8.469.533-11.412,12.946-15.027,33.553-18.594,57.568h-124.477l-1.113-10.119c-1.005-9.14-8.696-16.032-17.892-16.032h-4.848c-9.194,0-16.887,6.892-17.892,16.031l-1.113,10.119h-124.477c-3.597-24.22-7.242-44.996-18.892-57.91-35.097-38.913-44.402-76.437-33.19-133.833,5.468-42.534,45.888-74.632,93.977-74.635,16.988-.051,34.371,4.219,49.017,12.204-17.679,9.061-30.853,18.554-53.837,18.513-7.868.239-8.006,11.707,0,12,48.131-.899,58.2-32.714,108.831-32.171,50.627-.544,60.706,31.274,108.831,32.172,7.874-.246,8.004-11.706,0-12.001-22.983.042-36.158-9.452-53.837-18.513,26.369-14.566,61.099-16.049,88.586-4.473-4.812,3.05-9.837,5.758-14.928,8.334-2.061,1.042-4.618,1.95-5.519,4.277-1.323,2.844-.031,6.482,2.835,7.83,30.595,14.777,42.241,27.846,55.953,55.952,2.027,4.403,8.738,4.432,10.772,0,1.804-3.674,3.528-7.001,5.211-10.046,7.785,39.644,5.712,69.807-7.111,96.647-1.422,2.994-.147,6.572,2.847,7.994,2.99,1.42,6.572.148,7.993-2.846,15.687-30.813,16.166-73.765,5.41-116.192,9.962-13.357,21.703-21.739,41.604-31.508,2.054-1.009,3.355-3.098,3.355-5.386s-1.302-4.377-3.355-5.386c-29.812-14.635-41.316-26.139-55.953-55.952-1.008-2.054-3.098-3.356-5.386-3.356s-4.378,1.302-5.386,3.356c-8.67,17.66-16.243,28.896-27.171,38.163-18.402-9.046-39.842-12.984-60.666-11.193-53.376-27.068-134.791-27.068-188.166,0-56.05-5.244-109.337,32.649-115.716,84.096-11.829,60.734-1.366,102.461,36.092,143.991,9.038,10.02,12.541,29.044,15.669,49.873H22.002c-9.925,0-18,8.075-18,18v110.181c0,9.925,8.075,18,18,18h376.668l-6.14,10.634c-2.35,3.807.715,9.139,5.196,9,0,0,72.279,0,72.279,0,4.469.138,7.559-5.193,5.196-9,0,0-6.139-10.634-6.139-10.634h20.936c9.925,0,18-8.075,18-18v-110.181c0-9.925-8.075-18-18-18Zm-46.692-289.244c11.991,21.777,23.876,33.663,45.652,45.653-21.776,11.99-33.662,23.875-45.652,45.652-11.99-21.777-23.876-33.662-45.652-45.652,20.669-11.219,33.917-23.944,45.652-45.653Zm-114.816,15.164c-10.985,3.068-21.39,7.73-30.785,13.849-22.901-10.004-60.525-9.998-83.41,0-9.394-6.119-19.8-10.781-30.785-13.849,43.545-16.252,101.434-16.252,144.979,0Zm-80.877,265.273c.335-3.046,2.899-5.343,5.964-5.343h4.848c3.064,0,5.629,2.297,5.964,5.344l.969,8.807h-18.713l.969-8.807Zm147.854,44.807h76.799v74.181h-23.988l-9.215-15.961c-1.072-1.856-3.053-3-5.196-3s-4.124,1.144-5.196,3l-9.215,15.961h-23.988v-74.181Zm12.652,117.815l6.14-10.634h0l19.607-33.961,19.607,33.961h0l6.14,10.634h-51.494Zm87.879-25.634c0,3.309-2.691,6-6,6h-27.864l-6.928-12h23.06c3.313,0,6-2.687,6-6v-86.181c0-3.313-2.687-6-6-6-79.126.01-399.787-.017-443.996,0-3.313,0-6,2.686-6,6v86.181c0,3.313,2.687,6,6,6,44.33-.02,323.195.026,378.257,0l-6.928,12H22.002c-3.309,0-6-2.691-6-6v-110.181c0-3.309,2.691-6,6-6h467.996c3.309,0,6,2.691,6,6v110.181Zm-189.331-92.181h76.8v74.181h-76.8v-74.181Zm-88.799,0h76.799v74.181h-76.799v-74.181Zm-88.8,0h76.8v74.181h-76.8v-74.181Zm-88.799,74.181v-74.181h76.799v74.181H40.27Z"/><path class="cls-1" d="m433.491,269.455c0,3.314,2.686,6,6,6,7.943-.274,7.941-11.727,0-12-3.314,0-6,2.686-6,6Z"/></svg>